<mxfile host="app.diagrams.net" modified="2021-01-07T08:48:22.833Z" agent="5.0 (X11; Linux x86_64) AppleWebKit/537.36 (KHTML, like Gecko) Chrome/87.0.4280.66 Safari/537.36" etag="FF64DQ53_xDcxx8lvuV0" version="14.1.8" type="github">
  <diagram id="S_3gUw02bYtEyLrn703O" name="Page-1">
    <mxGraphModel dx="1355" dy="806" grid="1" gridSize="10" guides="1" tooltips="1" connect="1" arrows="1" fold="1" page="1" pageScale="1" pageWidth="250" pageHeight="500" math="0" shadow="0">
      <root>
        <mxCell id="0" />
        <mxCell id="1" parent="0" />
        <mxCell id="mDspjd16X9DphrJIXM39-1" value=":AlertController" style="shape=umlLifeline;perimeter=lifelinePerimeter;container=1;collapsible=0;recursiveResize=0;rounded=0;shadow=0;strokeWidth=1;" vertex="1" parent="1">
          <mxGeometry x="220" y="80" width="100" height="580" as="geometry" />
        </mxCell>
        <mxCell id="mDspjd16X9DphrJIXM39-2" value="" style="points=[];perimeter=orthogonalPerimeter;rounded=0;shadow=0;strokeWidth=1;" vertex="1" parent="mDspjd16X9DphrJIXM39-1">
          <mxGeometry x="45" y="80" width="10" height="450" as="geometry" />
        </mxCell>
        <mxCell id="mDspjd16X9DphrJIXM39-3" value=":Rule" style="shape=umlLifeline;perimeter=lifelinePerimeter;container=1;collapsible=0;recursiveResize=0;rounded=0;shadow=0;strokeWidth=1;" vertex="1" parent="1">
          <mxGeometry x="370" y="80" width="100" height="570" as="geometry" />
        </mxCell>
        <mxCell id="mDspjd16X9DphrJIXM39-4" value="" style="points=[];perimeter=orthogonalPerimeter;rounded=0;shadow=0;strokeWidth=1;" vertex="1" parent="mDspjd16X9DphrJIXM39-3">
          <mxGeometry x="45" y="80" width="10" height="450" as="geometry" />
        </mxCell>
        <mxCell id="mDspjd16X9DphrJIXM39-5" value=":Transaction&#xa;Pusher" style="shape=umlLifeline;perimeter=lifelinePerimeter;container=1;collapsible=0;recursiveResize=0;rounded=0;shadow=0;strokeWidth=1;" vertex="1" parent="1">
          <mxGeometry x="520" y="80" width="100" height="570" as="geometry" />
        </mxCell>
        <mxCell id="mDspjd16X9DphrJIXM39-6" value="" style="points=[];perimeter=orthogonalPerimeter;rounded=0;shadow=0;strokeWidth=1;" vertex="1" parent="mDspjd16X9DphrJIXM39-5">
          <mxGeometry x="45" y="80" width="10" height="450" as="geometry" />
        </mxCell>
        <mxCell id="mDspjd16X9DphrJIXM39-7" value=":BigDecimal" style="shape=umlLifeline;perimeter=lifelinePerimeter;container=1;collapsible=0;recursiveResize=0;rounded=0;shadow=0;strokeWidth=1;" vertex="1" parent="1">
          <mxGeometry x="670" y="80" width="100" height="570" as="geometry" />
        </mxCell>
        <mxCell id="mDspjd16X9DphrJIXM39-8" value="" style="points=[];perimeter=orthogonalPerimeter;rounded=0;shadow=0;strokeWidth=1;" vertex="1" parent="mDspjd16X9DphrJIXM39-7">
          <mxGeometry x="45" y="190" width="10" height="90" as="geometry" />
        </mxCell>
        <mxCell id="mDspjd16X9DphrJIXM39-9" value=":String" style="shape=umlLifeline;perimeter=lifelinePerimeter;container=1;collapsible=0;recursiveResize=0;rounded=0;shadow=0;strokeWidth=1;" vertex="1" parent="1">
          <mxGeometry x="840" y="80" width="100" height="580" as="geometry" />
        </mxCell>
        <mxCell id="mDspjd16X9DphrJIXM39-10" value="" style="points=[];perimeter=orthogonalPerimeter;rounded=0;shadow=0;strokeWidth=1;" vertex="1" parent="mDspjd16X9DphrJIXM39-9">
          <mxGeometry x="45" y="80" width="10" height="450" as="geometry" />
        </mxCell>
        <mxCell id="mDspjd16X9DphrJIXM39-11" value="findById" style="verticalAlign=bottom;endArrow=block;shadow=0;strokeWidth=1;exitX=1.159;exitY=0.075;exitDx=0;exitDy=0;exitPerimeter=0;" edge="1" parent="1">
          <mxGeometry relative="1" as="geometry">
            <mxPoint x="276.5899999999999" y="177" as="sourcePoint" />
            <mxPoint x="419.5" y="177" as="targetPoint" />
          </mxGeometry>
        </mxCell>
        <mxCell id="mDspjd16X9DphrJIXM39-12" value="getLastTransaction" style="verticalAlign=bottom;endArrow=block;shadow=0;strokeWidth=1;exitX=1.041;exitY=0.185;exitDx=0;exitDy=0;exitPerimeter=0;" edge="1" parent="1">
          <mxGeometry relative="1" as="geometry">
            <mxPoint x="275.40999999999985" y="208.5999999999999" as="sourcePoint" />
            <mxPoint x="569.5" y="208.5999999999999" as="targetPoint" />
          </mxGeometry>
        </mxCell>
        <mxCell id="mDspjd16X9DphrJIXM39-13" value="getRulePayload" style="verticalAlign=bottom;endArrow=block;shadow=0;strokeWidth=1;exitX=0.924;exitY=0.318;exitDx=0;exitDy=0;exitPerimeter=0;entryX=0.5;entryY=0.318;entryDx=0;entryDy=0;entryPerimeter=0;" edge="1" parent="1">
          <mxGeometry relative="1" as="geometry">
            <mxPoint x="274.24" y="248.8800000000001" as="sourcePoint" />
            <mxPoint x="420" y="248.8800000000001" as="targetPoint" />
          </mxGeometry>
        </mxCell>
        <mxCell id="mDspjd16X9DphrJIXM39-14" value="multiply" style="verticalAlign=bottom;endArrow=block;shadow=0;strokeWidth=1;exitX=0.924;exitY=0.774;exitDx=0;exitDy=0;exitPerimeter=0;" edge="1" parent="1">
          <mxGeometry relative="1" as="geometry">
            <mxPoint x="274.24" y="293.3000000000002" as="sourcePoint" />
            <mxPoint x="719.5" y="293.3000000000002" as="targetPoint" />
          </mxGeometry>
        </mxCell>
        <mxCell id="mDspjd16X9DphrJIXM39-15" value="getPaymentAmount" style="verticalAlign=bottom;endArrow=block;shadow=0;strokeWidth=1;exitX=0.5;exitY=0.875;exitDx=0;exitDy=0;exitPerimeter=0;" edge="1" parent="1">
          <mxGeometry relative="1" as="geometry">
            <mxPoint x="720" y="332" as="sourcePoint" />
            <mxPoint x="569.3235294117644" y="332" as="targetPoint" />
          </mxGeometry>
        </mxCell>
        <mxCell id="mDspjd16X9DphrJIXM39-16" value="writeValueAsString" style="verticalAlign=bottom;endArrow=block;shadow=0;strokeWidth=1;" edge="1" parent="1" source="mDspjd16X9DphrJIXM39-2" target="mDspjd16X9DphrJIXM39-9">
          <mxGeometry relative="1" as="geometry">
            <mxPoint x="300" y="400.00000000000017" as="sourcePoint" />
            <mxPoint x="745.26" y="400.00000000000017" as="targetPoint" />
          </mxGeometry>
        </mxCell>
        <mxCell id="mDspjd16X9DphrJIXM39-17" value=":SimpMessaging&#xa;Template" style="shape=umlLifeline;perimeter=lifelinePerimeter;container=1;collapsible=0;recursiveResize=0;rounded=0;shadow=0;strokeWidth=1;" vertex="1" parent="1">
          <mxGeometry x="990" y="80" width="100" height="580" as="geometry" />
        </mxCell>
        <mxCell id="mDspjd16X9DphrJIXM39-18" value="" style="points=[];perimeter=orthogonalPerimeter;rounded=0;shadow=0;strokeWidth=1;" vertex="1" parent="mDspjd16X9DphrJIXM39-17">
          <mxGeometry x="45" y="80" width="10" height="450" as="geometry" />
        </mxCell>
        <mxCell id="mDspjd16X9DphrJIXM39-19" value="convertAndSend" style="verticalAlign=bottom;endArrow=block;shadow=0;strokeWidth=1;entryX=0.51;entryY=0.649;entryDx=0;entryDy=0;entryPerimeter=0;" edge="1" parent="1" source="mDspjd16X9DphrJIXM39-2" target="mDspjd16X9DphrJIXM39-17">
          <mxGeometry relative="1" as="geometry">
            <mxPoint x="285" y="450.0000000000002" as="sourcePoint" />
            <mxPoint x="899.5" y="450.0000000000002" as="targetPoint" />
          </mxGeometry>
        </mxCell>
        <mxCell id="mDspjd16X9DphrJIXM39-20" value=":WebSocket" style="shape=umlLifeline;perimeter=lifelinePerimeter;container=1;collapsible=0;recursiveResize=0;rounded=0;shadow=0;strokeWidth=1;" vertex="1" parent="1">
          <mxGeometry x="1160" y="80" width="100" height="580" as="geometry" />
        </mxCell>
        <mxCell id="mDspjd16X9DphrJIXM39-21" value="" style="points=[];perimeter=orthogonalPerimeter;rounded=0;shadow=0;strokeWidth=1;" vertex="1" parent="mDspjd16X9DphrJIXM39-20">
          <mxGeometry x="45" y="80" width="10" height="450" as="geometry" />
        </mxCell>
        <mxCell id="mDspjd16X9DphrJIXM39-22" value="send" style="verticalAlign=bottom;endArrow=block;shadow=0;strokeWidth=1;exitX=1.1;exitY=0.76;exitDx=0;exitDy=0;exitPerimeter=0;" edge="1" parent="1">
          <mxGeometry relative="1" as="geometry">
            <mxPoint x="1045.9999999999995" y="495" as="sourcePoint" />
            <mxPoint x="1205" y="495" as="targetPoint" />
          </mxGeometry>
        </mxCell>
        <mxCell id="mDspjd16X9DphrJIXM39-23" value="&lt;font style=&quot;font-size: 30px&quot;&gt;Alert(&lt;/font&gt;&lt;font style=&quot;font-size: 20px&quot;&gt;/api/{id}/alert&lt;/font&gt;&lt;font style=&quot;font-size: 30px&quot;&gt;)&lt;/font&gt;" style="text;html=1;strokeColor=none;fillColor=none;align=center;verticalAlign=middle;whiteSpace=wrap;rounded=0;" vertex="1" parent="1">
          <mxGeometry x="500" y="10" width="470" height="40" as="geometry" />
        </mxCell>
        <mxCell id="mDspjd16X9DphrJIXM39-24" value="dispatch" style="verticalAlign=bottom;startArrow=oval;endArrow=block;startSize=8;shadow=0;strokeWidth=1;" edge="1" parent="1">
          <mxGeometry relative="1" as="geometry">
            <mxPoint x="200" y="170" as="sourcePoint" />
            <mxPoint x="260" y="170" as="targetPoint" />
          </mxGeometry>
        </mxCell>
      </root>
    </mxGraphModel>
  </diagram>
</mxfile>
